<svg width="800" height="800" viewBox="0 0 800 800" fill="none" xmlns="http://www.w3.org/2000/svg">
  <style>
    .pattern {
      fill: none;
      stroke: #26734D;
      stroke-width: 1.5;
      opacity: 0.15;
    }
  </style>
  <g class="pattern">
    <!-- Octagonal grid pattern -->
    <path d="M100,0 L100,800 M200,0 L200,800 M300,0 L300,800 M400,0 L400,800 M500,0 L500,800 M600,0 L600,800 M700,0 L700,800" />
    <path d="M0,100 L800,100 M0,200 L800,200 M0,300 L800,300 M0,400 L800,400 M0,500 L800,500 M0,600 L800,600 M0,700 L800,700" />
    
    <!-- Diagonal lines -->
    <path d="M50,0 L0,50 M150,0 L0,150 M250,0 L0,250 M350,0 L0,350 M450,0 L0,450 M550,0 L0,550 M650,0 L0,650 M750,0 L0,750 M800,50 L50,800 M800,150 L150,800 M800,250 L250,800 M800,350 L350,800 M800,450 L450,800 M800,550 L550,800 M800,650 L650,800 M800,750 L750,800" />
    <path d="M0,50 L750,800 M0,150 L850,800 M0,250 L800,650 M0,350 L800,550 M0,450 L800,450 M0,550 L800,350 M0,650 L800,250 M0,750 L800,150 M50,800 L800,50 M150,800 L800,0" />
    
    <!-- Star patterns at intersections -->
    <path d="M100,100 L120,80 L100,60 L80,80 Z" />
    <path d="M100,200 L120,180 L100,160 L80,180 Z" />
    <path d="M100,300 L120,280 L100,260 L80,280 Z" />
    <path d="M100,400 L120,380 L100,360 L80,380 Z" />
    <path d="M100,500 L120,480 L100,460 L80,480 Z" />
    <path d="M100,600 L120,580 L100,560 L80,580 Z" />
    <path d="M100,700 L120,680 L100,660 L80,680 Z" />
    
    <path d="M200,100 L220,80 L200,60 L180,80 Z" />
    <path d="M200,200 L220,180 L200,160 L180,180 Z" />
    <path d="M200,300 L220,280 L200,260 L180,280 Z" />
    <path d="M200,400 L220,380 L200,360 L180,380 Z" />
    <path d="M200,500 L220,480 L200,460 L180,480 Z" />
    <path d="M200,600 L220,580 L200,560 L180,580 Z" />
    <path d="M200,700 L220,680 L200,660 L180,680 Z" />
    
    <path d="M300,100 L320,80 L300,60 L280,80 Z" />
    <path d="M300,200 L320,180 L300,160 L280,180 Z" />
    <path d="M300,300 L320,280 L300,260 L280,280 Z" />
    <path d="M300,400 L320,380 L300,360 L280,380 Z" />
    <path d="M300,500 L320,480 L300,460 L280,480 Z" />
    <path d="M300,600 L320,580 L300,560 L280,580 Z" />
    <path d="M300,700 L320,680 L300,660 L280,680 Z" />
    
    <path d="M400,100 L420,80 L400,60 L380,80 Z" />
    <path d="M400,200 L420,180 L400,160 L380,180 Z" />
    <path d="M400,300 L420,280 L400,260 L380,280 Z" />
    <path d="M400,400 L420,380 L400,360 L380,380 Z" />
    <path d="M400,500 L420,480 L400,460 L380,480 Z" />
    <path d="M400,600 L420,580 L400,560 L380,580 Z" />
    <path d="M400,700 L420,680 L400,660 L380,680 Z" />
    
    <path d="M500,100 L520,80 L500,60 L480,80 Z" />
    <path d="M500,200 L520,180 L500,160 L480,180 Z" />
    <path d="M500,300 L520,280 L500,260 L480,280 Z" />
    <path d="M500,400 L520,380 L500,360 L480,380 Z" />
    <path d="M500,500 L520,480 L500,460 L480,480 Z" />
    <path d="M500,600 L520,580 L500,560 L480,580 Z" />
    <path d="M500,700 L520,680 L500,660 L480,680 Z" />
    
    <path d="M600,100 L620,80 L600,60 L580,80 Z" />
    <path d="M600,200 L620,180 L600,160 L580,180 Z" />
    <path d="M600,300 L620,280 L600,260 L580,280 Z" />
    <path d="M600,400 L620,380 L600,360 L580,380 Z" />
    <path d="M600,500 L620,480 L600,460 L580,480 Z" />
    <path d="M600,600 L620,580 L600,560 L580,580 Z" />
    <path d="M600,700 L620,680 L600,660 L580,680 Z" />
    
    <path d="M700,100 L720,80 L700,60 L680,80 Z" />
    <path d="M700,200 L720,180 L700,160 L680,180 Z" />
    <path d="M700,300 L720,280 L700,260 L680,280 Z" />
    <path d="M700,400 L720,380 L700,360 L680,380 Z" />
    <path d="M700,500 L720,480 L700,460 L680,480 Z" />
    <path d="M700,600 L720,580 L700,560 L680,580 Z" />
    <path d="M700,700 L720,680 L700,660 L680,680 Z" />
    
    <!-- Octagonal stars -->
    <path d="M150,150 L170,130 L150,110 L130,130 Z M150,150 L170,170 L150,190 L130,170 Z" />
    <path d="M150,350 L170,330 L150,310 L130,330 Z M150,350 L170,370 L150,390 L130,370 Z" />
    <path d="M150,550 L170,530 L150,510 L130,530 Z M150,550 L170,570 L150,590 L130,570 Z" />
    
    <path d="M350,150 L370,130 L350,110 L330,130 Z M350,150 L370,170 L350,190 L330,170 Z" />
    <path d="M350,350 L370,330 L350,310 L330,330 Z M350,350 L370,370 L350,390 L330,370 Z" />
    <path d="M350,550 L370,530 L350,510 L330,530 Z M350,550 L370,570 L350,590 L330,570 Z" />
    
    <path d="M550,150 L570,130 L550,110 L530,130 Z M550,150 L570,170 L550,190 L530,170 Z" />
    <path d="M550,350 L570,330 L550,310 L530,330 Z M550,350 L570,370 L550,390 L530,370 Z" />
    <path d="M550,550 L570,530 L550,510 L530,530 Z M550,550 L570,570 L550,590 L530,570 Z" />
    
    <path d="M250,250 L270,230 L250,210 L230,230 Z M250,250 L270,270 L250,290 L230,270 Z" />
    <path d="M250,450 L270,430 L250,410 L230,430 Z M250,450 L270,470 L250,490 L230,470 Z" />
    <path d="M250,650 L270,630 L250,610 L230,630 Z M250,650 L270,670 L250,690 L230,670 Z" />
    
    <path d="M450,250 L470,230 L450,210 L430,230 Z M450,250 L470,270 L450,290 L430,270 Z" />
    <path d="M450,450 L470,430 L450,410 L430,430 Z M450,450 L470,470 L450,490 L430,470 Z" />
    <path d="M450,650 L470,630 L450,610 L430,630 Z M450,650 L470,670 L450,690 L430,670 Z" />
    
    <path d="M650,250 L670,230 L650,210 L630,230 Z M650,250 L670,270 L650,290 L630,270 Z" />
    <path d="M650,450 L670,430 L650,410 L630,430 Z M650,450 L670,470 L650,490 L630,470 Z" />
    <path d="M650,650 L670,630 L650,610 L630,630 Z M650,650 L670,670 L650,690 L630,670 Z" />
    
    <!-- Complex Islamic patterns -->
    <path d="M250,150 C270,130 270,170 250,150 C230,170 230,130 250,150" />
    <path d="M450,150 C470,130 470,170 450,150 C430,170 430,130 450,150" />
    <path d="M650,150 C670,130 670,170 650,150 C630,170 630,130 650,150" />
    
    <path d="M250,350 C270,330 270,370 250,350 C230,370 230,330 250,350" />
    <path d="M450,350 C470,330 470,370 450,350 C430,370 430,330 450,350" />
    <path d="M650,350 C670,330 670,370 650,350 C630,370 630,330 650,350" />
    
    <path d="M250,550 C270,530 270,570 250,550 C230,570 230,530 250,550" />
    <path d="M450,550 C470,530 470,570 450,550 C430,570 430,530 450,550" />
    <path d="M650,550 C670,530 670,570 650,550 C630,570 630,530 650,550" />
    
    <path d="M150,250 C170,230 170,270 150,250 C130,270 130,230 150,250" />
    <path d="M350,250 C370,230 370,270 350,250 C330,270 330,230 350,250" />
    <path d="M550,250 C570,230 570,270 550,250 C530,270 530,230 550,250" />
    
    <path d="M150,450 C170,430 170,470 150,450 C130,470 130,430 150,450" />
    <path d="M350,450 C370,430 370,470 350,450 C330,470 330,430 350,450" />
    <path d="M550,450 C570,430 570,470 550,450 C530,470 530,430 550,450" />
    
    <path d="M150,650 C170,630 170,670 150,650 C130,670 130,630 150,650" />
    <path d="M350,650 C370,630 370,670 350,650 C330,670 330,630 350,650" />
    <path d="M550,650 C570,630 570,670 550,650 C530,670 530,630 550,650" />
  </g>
</svg>
